<svg width="785" height="422" viewBox="0 0 785 422" fill="none" xmlns="http://www.w3.org/2000/svg">
<path d="M58.4081 404L50.2881 388.92H49.0701V404H37.7021V363.11H55.6241C58.9108 363.11 61.6948 363.69 63.9761 364.85C66.2574 365.971 67.9781 367.537 69.1381 369.548C70.2981 371.52 70.8781 373.743 70.8781 376.218C70.8781 379.002 70.1048 381.457 68.5581 383.584C67.0501 385.672 64.8268 387.161 61.8881 388.05L71.1101 404H58.4081ZM49.0701 381.148H54.6961C56.2428 381.148 57.4028 380.781 58.1761 380.046C58.9494 379.311 59.3361 378.248 59.3361 376.856C59.3361 375.541 58.9301 374.517 58.1181 373.782C57.3448 373.009 56.2041 372.622 54.6961 372.622H49.0701V381.148ZM109.34 371.462V404H97.9138V399.36C96.9471 400.829 95.6131 402.028 93.9118 402.956C92.2105 403.845 90.2578 404.29 88.0538 404.29C84.2645 404.29 81.2678 403.053 79.0638 400.578C76.8985 398.065 75.8158 394.662 75.8158 390.37V371.462H87.1258V388.92C87.1258 390.776 87.6091 392.245 88.5758 393.328C89.5811 394.372 90.8958 394.894 92.5198 394.894C94.1825 394.894 95.4971 394.372 96.4638 393.328C97.4305 392.245 97.9138 390.776 97.9138 388.92V371.462H109.34ZM158.324 371.172C162.422 371.172 165.632 372.409 167.952 374.884C170.31 377.359 171.49 380.742 171.49 385.034V404H160.122V386.542C160.122 384.802 159.638 383.449 158.672 382.482C157.705 381.515 156.39 381.032 154.728 381.032C153.065 381.032 151.75 381.515 150.784 382.482C149.817 383.449 149.334 384.802 149.334 386.542V404H137.966V386.542C137.966 384.802 137.482 383.449 136.516 382.482C135.588 381.515 134.292 381.032 132.63 381.032C130.928 381.032 129.594 381.515 128.628 382.482C127.661 383.449 127.178 384.802 127.178 386.542V404H115.81V371.462H127.178V375.754C128.183 374.362 129.478 373.26 131.064 372.448C132.688 371.597 134.544 371.172 136.632 371.172C139.029 371.172 141.156 371.694 143.012 372.738C144.906 373.782 146.395 375.251 147.478 377.146C148.638 375.367 150.165 373.937 152.06 372.854C153.954 371.733 156.042 371.172 158.324 371.172ZM175.862 387.702C175.862 384.338 176.461 381.399 177.66 378.886C178.897 376.373 180.56 374.439 182.648 373.086C184.774 371.733 187.133 371.056 189.724 371.056C191.966 371.056 193.9 371.501 195.524 372.39C197.148 373.279 198.404 374.478 199.294 375.986V371.462H210.662V404H199.294V399.476C198.404 400.984 197.128 402.183 195.466 403.072C193.842 403.961 191.928 404.406 189.724 404.406C187.133 404.406 184.774 403.729 182.648 402.376C180.56 401.023 178.897 399.089 177.66 396.576C176.461 394.024 175.862 391.066 175.862 387.702ZM199.294 387.702C199.294 385.614 198.714 383.971 197.554 382.772C196.432 381.573 195.04 380.974 193.378 380.974C191.676 380.974 190.265 381.573 189.144 382.772C188.022 383.932 187.462 385.575 187.462 387.702C187.462 389.79 188.022 391.453 189.144 392.69C190.265 393.889 191.676 394.488 193.378 394.488C195.04 394.488 196.432 393.889 197.554 392.69C198.714 391.491 199.294 389.829 199.294 387.702ZM238.542 371.172C242.254 371.172 245.192 372.429 247.358 374.942C249.562 377.417 250.664 380.781 250.664 385.034V404H239.296V386.542C239.296 384.686 238.812 383.236 237.846 382.192C236.879 381.109 235.584 380.568 233.96 380.568C232.258 380.568 230.924 381.109 229.958 382.192C228.991 383.236 228.508 384.686 228.508 386.542V404H217.14V361.08H228.508V376.102C229.513 374.633 230.866 373.453 232.568 372.564C234.308 371.636 236.299 371.172 238.542 371.172ZM292.189 404L279.371 386.078V404H268.003V363.11H279.371V380.742L292.073 363.11H305.181L290.159 382.946L305.935 404H292.189ZM325.225 404.406C321.977 404.406 319.058 403.729 316.467 402.376C313.915 401.023 311.904 399.089 310.435 396.576C308.966 394.063 308.231 391.105 308.231 387.702C308.231 384.338 308.966 381.399 310.435 378.886C311.943 376.373 313.973 374.439 316.525 373.086C319.116 371.733 322.035 371.056 325.283 371.056C328.531 371.056 331.431 371.733 333.983 373.086C336.574 374.439 338.604 376.373 340.073 378.886C341.581 381.399 342.335 384.338 342.335 387.702C342.335 391.066 341.581 394.024 340.073 396.576C338.604 399.089 336.574 401.023 333.983 402.376C331.392 403.729 328.473 404.406 325.225 404.406ZM325.225 394.546C326.81 394.546 328.125 393.966 329.169 392.806C330.252 391.607 330.793 389.906 330.793 387.702C330.793 385.498 330.252 383.816 329.169 382.656C328.125 381.496 326.83 380.916 325.283 380.916C323.736 380.916 322.441 381.496 321.397 382.656C320.353 383.816 319.831 385.498 319.831 387.702C319.831 389.945 320.334 391.646 321.339 392.806C322.344 393.966 323.64 394.546 325.225 394.546ZM358.328 377.204C359.604 375.348 361.151 373.879 362.968 372.796C364.785 371.713 366.738 371.172 368.826 371.172V383.294H365.636C363.161 383.294 361.325 383.777 360.126 384.744C358.927 385.711 358.328 387.393 358.328 389.79V404H346.96V371.462H358.328V377.204ZM403.989 387.354C403.989 388.243 403.931 389.133 403.815 390.022H382.297C382.413 391.801 382.897 393.135 383.747 394.024C384.637 394.875 385.758 395.3 387.111 395.3C389.006 395.3 390.359 394.449 391.171 392.748H403.293C402.791 394.991 401.805 397.001 400.335 398.78C398.905 400.52 397.087 401.893 394.883 402.898C392.679 403.903 390.243 404.406 387.575 404.406C384.366 404.406 381.505 403.729 378.991 402.376C376.517 401.023 374.564 399.089 373.133 396.576C371.741 394.063 371.045 391.105 371.045 387.702C371.045 384.299 371.741 381.361 373.133 378.886C374.525 376.373 376.459 374.439 378.933 373.086C381.447 371.733 384.327 371.056 387.575 371.056C390.785 371.056 393.627 371.713 396.101 373.028C398.576 374.343 400.509 376.237 401.901 378.712C403.293 381.148 403.989 384.029 403.989 387.354ZM392.389 384.512C392.389 383.12 391.925 382.037 390.997 381.264C390.069 380.452 388.909 380.046 387.517 380.046C386.125 380.046 384.985 380.433 384.095 381.206C383.206 381.941 382.626 383.043 382.355 384.512H392.389ZM406.786 387.702C406.786 384.338 407.385 381.399 408.584 378.886C409.821 376.373 411.484 374.439 413.572 373.086C415.698 371.733 418.057 371.056 420.648 371.056C422.89 371.056 424.824 371.501 426.448 372.39C428.072 373.279 429.328 374.478 430.218 375.986V371.462H441.586V404H430.218V399.476C429.328 400.984 428.052 402.183 426.39 403.072C424.766 403.961 422.852 404.406 420.648 404.406C418.057 404.406 415.698 403.729 413.572 402.376C411.484 401.023 409.821 399.089 408.584 396.576C407.385 394.024 406.786 391.066 406.786 387.702ZM430.218 387.702C430.218 385.614 429.638 383.971 428.478 382.772C427.356 381.573 425.964 380.974 424.302 380.974C422.6 380.974 421.189 381.573 420.068 382.772C418.946 383.932 418.386 385.575 418.386 387.702C418.386 389.79 418.946 391.453 420.068 392.69C421.189 393.889 422.6 394.488 424.302 394.488C425.964 394.488 427.356 393.889 428.478 392.69C429.638 391.491 430.218 389.829 430.218 387.702Z" fill="#0097B2"/>
<path d="M470.533 363.11V404H459.165V363.11H470.533ZM498.293 371.172C502.043 371.172 505.021 372.429 507.225 374.942C509.429 377.417 510.531 380.781 510.531 385.034V404H499.163V386.542C499.163 384.686 498.679 383.236 497.713 382.192C496.746 381.109 495.451 380.568 493.827 380.568C492.125 380.568 490.791 381.109 489.825 382.192C488.858 383.236 488.375 384.686 488.375 386.542V404H477.007V371.462H488.375V376.102C489.38 374.633 490.733 373.453 492.435 372.564C494.136 371.636 496.089 371.172 498.293 371.172ZM514.913 387.702C514.913 384.338 515.512 381.399 516.711 378.886C517.948 376.373 519.63 374.439 521.757 373.086C523.883 371.733 526.242 371.056 528.833 371.056C530.921 371.056 532.777 371.501 534.401 372.39C536.063 373.241 537.359 374.42 538.287 375.928V361.08H549.713V404H538.287V399.476C537.397 400.984 536.141 402.183 534.517 403.072C532.893 403.961 530.979 404.406 528.775 404.406C526.184 404.406 523.825 403.729 521.699 402.376C519.611 401.023 517.948 399.089 516.711 396.576C515.512 394.024 514.913 391.066 514.913 387.702ZM538.345 387.702C538.345 385.614 537.765 383.971 536.605 382.772C535.483 381.573 534.091 380.974 532.429 380.974C530.727 380.974 529.316 381.573 528.195 382.772C527.073 383.932 526.513 385.575 526.513 387.702C526.513 389.79 527.073 391.453 528.195 392.69C529.316 393.889 530.727 394.488 532.429 394.488C534.091 394.488 535.483 393.889 536.605 392.69C537.765 391.491 538.345 389.829 538.345 387.702ZM571.328 404.406C568.08 404.406 565.161 403.729 562.57 402.376C560.018 401.023 558.008 399.089 556.538 396.576C555.069 394.063 554.334 391.105 554.334 387.702C554.334 384.338 555.069 381.399 556.538 378.886C558.046 376.373 560.076 374.439 562.628 373.086C565.219 371.733 568.138 371.056 571.386 371.056C574.634 371.056 577.534 371.733 580.086 373.086C582.677 374.439 584.707 376.373 586.176 378.886C587.684 381.399 588.438 384.338 588.438 387.702C588.438 391.066 587.684 394.024 586.176 396.576C584.707 399.089 582.677 401.023 580.086 402.376C577.496 403.729 574.576 404.406 571.328 404.406ZM571.328 394.546C572.914 394.546 574.228 393.966 575.272 392.806C576.355 391.607 576.896 389.906 576.896 387.702C576.896 385.498 576.355 383.816 575.272 382.656C574.228 381.496 572.933 380.916 571.386 380.916C569.84 380.916 568.544 381.496 567.5 382.656C566.456 383.816 565.934 385.498 565.934 387.702C565.934 389.945 566.437 391.646 567.442 392.806C568.448 393.966 569.743 394.546 571.328 394.546ZM614.349 371.172C618.1 371.172 621.077 372.429 623.281 374.942C625.485 377.417 626.587 380.781 626.587 385.034V404H615.219V386.542C615.219 384.686 614.736 383.236 613.769 382.192C612.803 381.109 611.507 380.568 609.883 380.568C608.182 380.568 606.848 381.109 605.881 382.192C604.915 383.236 604.431 384.686 604.431 386.542V404H593.063V371.462H604.431V376.102C605.437 374.633 606.79 373.453 608.491 372.564C610.193 371.636 612.145 371.172 614.349 371.172ZM663.913 387.354C663.913 388.243 663.855 389.133 663.739 390.022H642.221C642.337 391.801 642.82 393.135 643.671 394.024C644.56 394.875 645.682 395.3 647.035 395.3C648.93 395.3 650.283 394.449 651.095 392.748H663.217C662.714 394.991 661.728 397.001 660.259 398.78C658.828 400.52 657.011 401.893 654.807 402.898C652.603 403.903 650.167 404.406 647.499 404.406C644.29 404.406 641.428 403.729 638.915 402.376C636.44 401.023 634.488 399.089 633.057 396.576C631.665 394.063 630.969 391.105 630.969 387.702C630.969 384.299 631.665 381.361 633.057 378.886C634.449 376.373 636.382 374.439 638.857 373.086C641.37 371.733 644.251 371.056 647.499 371.056C650.708 371.056 653.55 371.713 656.025 373.028C658.5 374.343 660.433 376.237 661.825 378.712C663.217 381.148 663.913 384.029 663.913 387.354ZM652.313 384.512C652.313 383.12 651.849 382.037 650.921 381.264C649.993 380.452 648.833 380.046 647.441 380.046C646.049 380.046 644.908 380.433 644.019 381.206C643.13 381.941 642.55 383.043 642.279 384.512H652.313ZM682.427 404.406C679.489 404.406 676.859 403.923 674.539 402.956C672.258 401.951 670.441 400.597 669.087 398.896C667.773 397.156 667.038 395.203 666.883 393.038H677.903C678.058 394.082 678.541 394.894 679.353 395.474C680.165 396.054 681.171 396.344 682.369 396.344C683.297 396.344 684.032 396.151 684.573 395.764C685.115 395.377 685.385 394.875 685.385 394.256C685.385 393.444 684.941 392.845 684.051 392.458C683.162 392.071 681.693 391.646 679.643 391.182C677.323 390.718 675.39 390.196 673.843 389.616C672.297 389.036 670.943 388.089 669.783 386.774C668.662 385.459 668.101 383.681 668.101 381.438C668.101 379.505 668.623 377.765 669.667 376.218C670.711 374.633 672.239 373.376 674.249 372.448C676.299 371.52 678.754 371.056 681.615 371.056C685.869 371.056 689.213 372.1 691.649 374.188C694.085 376.276 695.497 379.021 695.883 382.424H685.617C685.424 381.38 684.96 380.587 684.225 380.046C683.529 379.466 682.582 379.176 681.383 379.176C680.455 379.176 679.74 379.35 679.237 379.698C678.773 380.046 678.541 380.529 678.541 381.148C678.541 381.921 678.986 382.521 679.875 382.946C680.765 383.333 682.195 383.739 684.167 384.164C686.526 384.667 688.479 385.227 690.025 385.846C691.611 386.465 692.983 387.47 694.143 388.862C695.342 390.215 695.941 392.071 695.941 394.43C695.941 396.325 695.381 398.026 694.259 399.534C693.177 401.042 691.611 402.241 689.561 403.13C687.551 403.981 685.173 404.406 682.427 404.406ZM707.272 368.446C705.262 368.446 703.638 367.905 702.4 366.822C701.202 365.701 700.602 364.309 700.602 362.646C700.602 360.945 701.202 359.533 702.4 358.412C703.638 357.291 705.262 356.73 707.272 356.73C709.244 356.73 710.83 357.291 712.028 358.412C713.266 359.533 713.884 360.945 713.884 362.646C713.884 364.309 713.266 365.701 712.028 366.822C710.83 367.905 709.244 368.446 707.272 368.446ZM712.898 371.462V404H701.53V371.462H712.898ZM717.516 387.702C717.516 384.338 718.115 381.399 719.314 378.886C720.551 376.373 722.214 374.439 724.302 373.086C726.429 371.733 728.787 371.056 731.378 371.056C733.621 371.056 735.554 371.501 737.178 372.39C738.802 373.279 740.059 374.478 740.948 375.986V371.462H752.316V404H740.948V399.476C740.059 400.984 738.783 402.183 737.12 403.072C735.496 403.961 733.582 404.406 731.378 404.406C728.787 404.406 726.429 403.729 724.302 402.376C722.214 401.023 720.551 399.089 719.314 396.576C718.115 394.024 717.516 391.066 717.516 387.702ZM740.948 387.702C740.948 385.614 740.368 383.971 739.208 382.772C738.087 381.573 736.695 380.974 735.032 380.974C733.331 380.974 731.919 381.573 730.798 382.772C729.677 383.932 729.116 385.575 729.116 387.702C729.116 389.79 729.677 391.453 730.798 392.69C731.919 393.889 733.331 394.488 735.032 394.488C736.695 394.488 738.087 393.889 739.208 392.69C740.368 391.491 740.948 389.829 740.948 387.702Z" fill="white"/>
<path fill-rule="evenodd" clip-rule="evenodd" d="M171.051 1.74911C173.971 -0.583037 178.116 -0.583037 181.036 1.74911L315.451 109.107C321.362 113.829 318.024 123.358 310.458 123.358H293.602V240.763C293.602 245.733 289.573 249.763 284.602 249.763H62.7557C57.7851 249.763 53.7557 245.733 53.7557 240.763V123.358H41.6286C34.0632 123.358 30.7247 113.829 36.636 109.107L96.2357 61.5046C95.9919 60.7387 95.8604 59.9227 95.8604 59.076V25.0548C95.8604 20.6365 99.4421 17.0548 103.86 17.0548H117.935C122.353 17.0548 125.935 20.6365 125.935 25.0548V37.7834L171.051 1.74911ZM205.755 235.24C195.835 238.896 185.068 240.899 173.816 240.899C160.988 240.899 148.79 238.296 137.76 233.608L109.236 249.768H84.7192V162.592C84.4704 159.97 84.3433 157.315 84.3433 154.631C84.3433 106.986 124.401 68.3623 173.816 68.3623C223.23 68.3623 263.288 106.986 263.288 154.631C263.288 181.013 251.006 204.63 231.653 220.454L241.108 249.769H222.311L205.755 235.24Z" fill="#0097B2"/>
<path d="M126.459 129.013C130.218 133.725 141.496 136.988 142.248 136.988C153.15 131.551 187.736 132.276 208.413 132.276C208.037 136.746 207.285 145.832 207.285 150.762C207.285 155.691 203.525 156.924 201.646 156.924H139.616C126.083 153.661 121.196 157.649 123.075 157.649C131.195 158.229 133.476 162.723 133.601 164.898V188.459C133.601 191.939 139.366 193.05 142.248 193.171H209.164C227.585 192.808 231.345 192.084 228.713 189.184C224.454 184.491 210.292 186.284 207.285 188.096C204.277 189.909 151.27 189.909 146.759 189.909C143.15 189.909 142.248 187.492 142.248 186.284V161.273C146.759 160.186 203.901 160.186 211.42 160.186C218.939 160.186 215.931 155.836 211.42 154.386C211.42 147.137 217.686 131.792 220.818 125.389C217.184 125.026 209.39 124.519 207.285 125.389C197.886 130.101 144.128 129.013 136.609 129.013C129.09 129.013 122.699 124.301 126.459 129.013Z" fill="white"/>
<path d="M47.8357 279.037H96.2857V299.737H58.1107V310.312H47.9857V292.312H86.1607V286.987H47.8357V279.037ZM47.9857 305.437H98.0107V313.312H47.9857V305.437ZM40.6357 318.412H103.561V326.437H40.6357V318.412ZM66.9607 321.337H76.9357V346.462H66.9607V321.337ZM111.73 283.387H144.955V329.437H111.73V283.387ZM135.13 291.187H121.555V321.562H135.13V291.187ZM154.03 276.862H164.08V346.312H154.03V276.862ZM161.83 303.037H174.13V311.287H161.83V303.037ZM201.643 282.637H245.368V290.587H201.643V282.637ZM194.518 330.337H257.293V338.362H194.518V330.337ZM241.393 282.637H251.218V288.712C251.218 297.112 251.293 306.937 248.068 322.012L238.243 320.962C241.393 306.862 241.393 296.737 241.393 288.712V282.637ZM243.193 299.362V306.862L200.818 309.187L199.468 300.712L243.193 299.362ZM216.793 313.687H226.768V333.262H216.793V313.687ZM311.362 276.787H321.337V346.462H311.362V276.787ZM267.262 322.162H273.412C285.712 322.162 295.537 321.712 306.562 319.837L307.537 327.862C296.287 329.887 286.087 330.262 273.412 330.262H267.262V322.162ZM267.187 282.712H299.962V309.562H277.387V325.162H267.262V301.687H289.762V290.662H267.187V282.712ZM351.106 281.662C361.681 281.662 369.331 291.262 369.331 306.412C369.331 321.712 361.681 331.312 351.106 331.312C340.531 331.312 332.881 321.712 332.881 306.412C332.881 291.262 340.531 281.662 351.106 281.662ZM351.106 290.737C345.931 290.737 342.481 296.212 342.481 306.412C342.481 316.762 345.931 322.312 351.106 322.312C356.281 322.312 359.806 316.762 359.806 306.412C359.806 296.212 356.281 290.737 351.106 290.737ZM376.906 276.862H386.956V346.312H376.906V276.862ZM384.706 303.037H397.006V311.287H384.706V303.037Z" fill="white"/>
<path d="M465.094 276.937H475.144V326.812H465.094V276.937ZM428.869 337.162H476.869V345.112H428.869V337.162ZM428.869 321.787H438.844V340.387H428.869V321.787ZM437.344 281.287C447.994 281.287 456.169 288.637 456.169 298.912C456.169 309.112 447.994 316.537 437.344 316.537C426.694 316.537 418.444 309.112 418.444 298.912C418.444 288.637 426.694 281.287 437.344 281.287ZM437.344 289.912C432.169 289.912 428.194 293.212 428.194 298.912C428.194 304.537 432.169 307.837 437.344 307.837C442.444 307.837 446.419 304.537 446.419 298.912C446.419 293.212 442.444 289.912 437.344 289.912ZM493.738 307.837H542.563V315.787H493.738V307.837ZM486.463 330.337H549.313V338.512H486.463V330.337ZM512.788 311.437H522.763V332.962H512.788V311.437ZM493.738 281.587H542.038V289.612H503.713V311.287H493.738V281.587ZM558.007 283.462H567.907V323.812H558.007V283.462ZM558.007 321.262H562.882C571.282 321.262 578.257 320.962 586.282 319.312L587.557 327.637C579.232 329.437 571.732 329.737 562.882 329.737H558.007V321.262ZM605.707 276.862H615.232V346.312H605.707V276.862ZM577.357 298.762H593.182V306.787H577.357V298.762ZM591.007 278.062H600.307V343.237H591.007V278.062ZM641.326 282.187H649.426V292.312C649.426 310.162 643.276 326.287 629.476 332.662L623.551 324.412C635.626 319.162 641.326 305.812 641.326 292.312V282.187ZM643.276 282.187H651.376V292.312C651.376 305.137 656.851 317.887 668.701 322.987L662.851 331.012C649.426 324.862 643.276 309.412 643.276 292.312V282.187ZM672.001 276.787H682.051V346.462H672.001V276.787ZM711.97 281.662C722.545 281.662 730.195 291.262 730.195 306.412C730.195 321.712 722.545 331.312 711.97 331.312C701.395 331.312 693.745 321.712 693.745 306.412C693.745 291.262 701.395 281.662 711.97 281.662ZM711.97 290.737C706.795 290.737 703.345 296.212 703.345 306.412C703.345 316.762 706.795 322.312 711.97 322.312C717.145 322.312 720.67 316.762 720.67 306.412C720.67 296.212 717.145 290.737 711.97 290.737ZM737.77 276.862H747.82V346.312H737.77V276.862ZM745.57 303.037H757.87V311.287H745.57V303.037Z" fill="#0097B2"/>
<path d="M367.6 111.637V193.437C367.6 201.037 369.333 206.903 372.8 211.037C376.4 215.17 381.8 217.237 389 217.237C396.2 217.237 401.6 215.17 405.2 211.037C408.933 206.77 410.8 200.903 410.8 193.437V111.637H450V193.437C450 206.37 447.267 217.437 441.8 226.637C436.333 235.703 428.867 242.57 419.4 247.237C410.067 251.77 399.667 254.037 388.2 254.037C376.733 254.037 366.467 251.77 357.4 247.237C348.467 242.57 341.4 235.703 336.2 226.637C331.133 217.57 328.6 206.503 328.6 193.437V111.637H367.6ZM554.983 252.637L510.783 190.837V252.637H471.583V111.637H510.783V172.437L554.583 111.637H599.783L547.983 180.037L602.383 252.637H554.983ZM684.3 254.037C671.1 254.037 658.967 250.97 647.9 244.837C636.833 238.57 628.033 229.97 621.5 219.037C615.1 207.97 611.9 195.503 611.9 181.637C611.9 167.77 615.1 155.37 621.5 144.437C628.033 133.37 636.833 124.77 647.9 118.637C658.967 112.503 671.1 109.437 684.3 109.437C697.633 109.437 709.767 112.503 720.7 118.637C731.767 124.77 740.5 133.37 746.9 144.437C753.3 155.37 756.5 167.77 756.5 181.637C756.5 195.503 753.3 207.97 746.9 219.037C740.5 229.97 731.767 238.57 720.7 244.837C709.633 250.97 697.5 254.037 684.3 254.037ZM684.3 217.637C694.3 217.637 702.167 214.37 707.9 207.837C713.767 201.303 716.7 192.57 716.7 181.637C716.7 170.437 713.767 161.637 707.9 155.237C702.167 148.703 694.3 145.437 684.3 145.437C674.167 145.437 666.233 148.703 660.5 155.237C654.767 161.637 651.9 170.437 651.9 181.637C651.9 192.703 654.767 201.503 660.5 208.037C666.233 214.437 674.167 217.637 684.3 217.637Z" fill="white"/>
</svg>
